<mxfile host="app.diagrams.net" modified="2024-07-11T13:52:01.263Z" agent="Mozilla/5.0 (Windows NT 10.0; Win64; x64) AppleWebKit/537.36 (KHTML, like Gecko) Chrome/126.0.0.0 Safari/537.36" etag="LkTjivzy1nVLCHRLc4yW" version="24.6.4" type="github">
  <diagram name="Trang-1" id="2DYWAN5hthaWt-I_ADUZ">
    <mxGraphModel dx="1880" dy="1367" grid="1" gridSize="10" guides="1" tooltips="1" connect="1" arrows="1" fold="1" page="0" pageScale="1" pageWidth="827" pageHeight="1169" math="0" shadow="0">
      <root>
        <mxCell id="0" />
        <mxCell id="1" parent="0" />
        <mxCell id="c82SJm1BQEb7knvldoy7-1" value="ab" style="ellipse;whiteSpace=wrap;html=1;aspect=fixed;" vertex="1" parent="1">
          <mxGeometry x="-110" y="-290" width="40" height="40" as="geometry" />
        </mxCell>
        <mxCell id="c82SJm1BQEb7knvldoy7-4" value="a1" style="ellipse;whiteSpace=wrap;html=1;aspect=fixed;" vertex="1" parent="1">
          <mxGeometry x="-170" y="-180" width="40" height="40" as="geometry" />
        </mxCell>
        <mxCell id="c82SJm1BQEb7knvldoy7-7" value="b1" style="ellipse;whiteSpace=wrap;html=1;aspect=fixed;" vertex="1" parent="1">
          <mxGeometry x="-30" y="-180" width="40" height="40" as="geometry" />
        </mxCell>
        <mxCell id="c82SJm1BQEb7knvldoy7-9" value="" style="endArrow=none;html=1;rounded=0;exitX=0.5;exitY=1;exitDx=0;exitDy=0;entryX=0.5;entryY=0;entryDx=0;entryDy=0;" edge="1" parent="1" source="c82SJm1BQEb7knvldoy7-1" target="c82SJm1BQEb7knvldoy7-7">
          <mxGeometry width="50" height="50" relative="1" as="geometry">
            <mxPoint x="-20" y="-130" as="sourcePoint" />
            <mxPoint x="30" y="-180" as="targetPoint" />
          </mxGeometry>
        </mxCell>
        <mxCell id="c82SJm1BQEb7knvldoy7-10" value="" style="endArrow=none;html=1;rounded=0;exitX=0.5;exitY=1;exitDx=0;exitDy=0;entryX=0.5;entryY=0;entryDx=0;entryDy=0;" edge="1" parent="1" source="c82SJm1BQEb7knvldoy7-1" target="c82SJm1BQEb7knvldoy7-4">
          <mxGeometry width="50" height="50" relative="1" as="geometry">
            <mxPoint x="-110" y="-230" as="sourcePoint" />
            <mxPoint x="-50" y="-140" as="targetPoint" />
          </mxGeometry>
        </mxCell>
        <mxCell id="c82SJm1BQEb7knvldoy7-11" value="a3" style="ellipse;whiteSpace=wrap;html=1;aspect=fixed;" vertex="1" parent="1">
          <mxGeometry x="-130" y="-110" width="40" height="40" as="geometry" />
        </mxCell>
        <mxCell id="c82SJm1BQEb7knvldoy7-12" value="a21" style="ellipse;whiteSpace=wrap;html=1;aspect=fixed;" vertex="1" parent="1">
          <mxGeometry x="-260" y="-40" width="40" height="40" as="geometry" />
        </mxCell>
        <mxCell id="c82SJm1BQEb7knvldoy7-13" value="a22" style="ellipse;whiteSpace=wrap;html=1;aspect=fixed;" vertex="1" parent="1">
          <mxGeometry x="-190" y="-40" width="40" height="40" as="geometry" />
        </mxCell>
        <mxCell id="c82SJm1BQEb7knvldoy7-14" value="" style="endArrow=none;html=1;rounded=0;entryX=0.5;entryY=0;entryDx=0;entryDy=0;exitX=0.5;exitY=1;exitDx=0;exitDy=0;" edge="1" source="c82SJm1BQEb7knvldoy7-17" target="c82SJm1BQEb7knvldoy7-13" parent="1">
          <mxGeometry width="50" height="50" relative="1" as="geometry">
            <mxPoint x="-110" y="-70" as="sourcePoint" />
            <mxPoint x="-40" y="10" as="targetPoint" />
          </mxGeometry>
        </mxCell>
        <mxCell id="c82SJm1BQEb7knvldoy7-15" value="" style="endArrow=none;html=1;rounded=0;entryX=0.5;entryY=0;entryDx=0;entryDy=0;exitX=0.5;exitY=1;exitDx=0;exitDy=0;" edge="1" source="c82SJm1BQEb7knvldoy7-17" target="c82SJm1BQEb7knvldoy7-12" parent="1">
          <mxGeometry width="50" height="50" relative="1" as="geometry">
            <mxPoint x="-120" y="-60" as="sourcePoint" />
            <mxPoint x="-120" y="50" as="targetPoint" />
          </mxGeometry>
        </mxCell>
        <mxCell id="c82SJm1BQEb7knvldoy7-16" value="" style="endArrow=none;html=1;rounded=0;exitX=0.5;exitY=1;exitDx=0;exitDy=0;entryX=0.5;entryY=0;entryDx=0;entryDy=0;" edge="1" parent="1" source="c82SJm1BQEb7knvldoy7-4" target="c82SJm1BQEb7knvldoy7-11">
          <mxGeometry width="50" height="50" relative="1" as="geometry">
            <mxPoint x="-80" y="-240" as="sourcePoint" />
            <mxPoint x="-140" y="-170" as="targetPoint" />
          </mxGeometry>
        </mxCell>
        <mxCell id="c82SJm1BQEb7knvldoy7-17" value="a2" style="ellipse;whiteSpace=wrap;html=1;aspect=fixed;" vertex="1" parent="1">
          <mxGeometry x="-220" y="-110" width="40" height="40" as="geometry" />
        </mxCell>
        <mxCell id="c82SJm1BQEb7knvldoy7-18" value="" style="endArrow=none;html=1;rounded=0;exitX=0.5;exitY=1;exitDx=0;exitDy=0;entryX=0.5;entryY=0;entryDx=0;entryDy=0;" edge="1" target="c82SJm1BQEb7knvldoy7-17" parent="1" source="c82SJm1BQEb7knvldoy7-4">
          <mxGeometry width="50" height="50" relative="1" as="geometry">
            <mxPoint x="-250" y="-125" as="sourcePoint" />
            <mxPoint x="-240" y="-155" as="targetPoint" />
          </mxGeometry>
        </mxCell>
        <mxCell id="c82SJm1BQEb7knvldoy7-20" value="Lệch trái trái" style="text;html=1;align=center;verticalAlign=middle;whiteSpace=wrap;rounded=0;" vertex="1" parent="1">
          <mxGeometry x="-250" y="-300" width="60" height="30" as="geometry" />
        </mxCell>
        <mxCell id="c82SJm1BQEb7knvldoy7-21" value="ab" style="ellipse;whiteSpace=wrap;html=1;aspect=fixed;" vertex="1" parent="1">
          <mxGeometry x="370" y="-235" width="40" height="40" as="geometry" />
        </mxCell>
        <mxCell id="c82SJm1BQEb7knvldoy7-22" value="a1" style="ellipse;whiteSpace=wrap;html=1;aspect=fixed;" vertex="1" parent="1">
          <mxGeometry x="260" y="-300" width="40" height="40" as="geometry" />
        </mxCell>
        <mxCell id="c82SJm1BQEb7knvldoy7-23" value="b1" style="ellipse;whiteSpace=wrap;html=1;aspect=fixed;" vertex="1" parent="1">
          <mxGeometry x="400" y="-155" width="40" height="40" as="geometry" />
        </mxCell>
        <mxCell id="c82SJm1BQEb7knvldoy7-24" value="" style="endArrow=none;html=1;rounded=0;exitX=0.5;exitY=1;exitDx=0;exitDy=0;entryX=0.5;entryY=0;entryDx=0;entryDy=0;" edge="1" parent="1" source="c82SJm1BQEb7knvldoy7-21" target="c82SJm1BQEb7knvldoy7-23">
          <mxGeometry width="50" height="50" relative="1" as="geometry">
            <mxPoint x="370" y="-125" as="sourcePoint" />
            <mxPoint x="420" y="-175" as="targetPoint" />
          </mxGeometry>
        </mxCell>
        <mxCell id="c82SJm1BQEb7knvldoy7-25" value="" style="endArrow=none;html=1;rounded=0;exitX=0.5;exitY=0;exitDx=0;exitDy=0;entryX=0.5;entryY=1;entryDx=0;entryDy=0;" edge="1" parent="1" source="c82SJm1BQEb7knvldoy7-21" target="c82SJm1BQEb7knvldoy7-22">
          <mxGeometry width="50" height="50" relative="1" as="geometry">
            <mxPoint x="280" y="-225" as="sourcePoint" />
            <mxPoint x="340" y="-135" as="targetPoint" />
          </mxGeometry>
        </mxCell>
        <mxCell id="c82SJm1BQEb7knvldoy7-26" value="a3" style="ellipse;whiteSpace=wrap;html=1;aspect=fixed;" vertex="1" parent="1">
          <mxGeometry x="340" y="-155" width="40" height="40" as="geometry" />
        </mxCell>
        <mxCell id="c82SJm1BQEb7knvldoy7-27" value="a21" style="ellipse;whiteSpace=wrap;html=1;aspect=fixed;" vertex="1" parent="1">
          <mxGeometry x="160" y="-155" width="40" height="40" as="geometry" />
        </mxCell>
        <mxCell id="c82SJm1BQEb7knvldoy7-28" value="a22" style="ellipse;whiteSpace=wrap;html=1;aspect=fixed;" vertex="1" parent="1">
          <mxGeometry x="220" y="-155" width="40" height="40" as="geometry" />
        </mxCell>
        <mxCell id="c82SJm1BQEb7knvldoy7-29" value="" style="endArrow=none;html=1;rounded=0;entryX=0.5;entryY=0;entryDx=0;entryDy=0;exitX=0.5;exitY=1;exitDx=0;exitDy=0;" edge="1" parent="1" source="c82SJm1BQEb7knvldoy7-32" target="c82SJm1BQEb7knvldoy7-28">
          <mxGeometry width="50" height="50" relative="1" as="geometry">
            <mxPoint x="280" y="-65" as="sourcePoint" />
            <mxPoint x="350" y="15" as="targetPoint" />
          </mxGeometry>
        </mxCell>
        <mxCell id="c82SJm1BQEb7knvldoy7-30" value="" style="endArrow=none;html=1;rounded=0;entryX=0.5;entryY=0;entryDx=0;entryDy=0;exitX=0.5;exitY=1;exitDx=0;exitDy=0;" edge="1" parent="1" source="c82SJm1BQEb7knvldoy7-32" target="c82SJm1BQEb7knvldoy7-27">
          <mxGeometry width="50" height="50" relative="1" as="geometry">
            <mxPoint x="270" y="-55" as="sourcePoint" />
            <mxPoint x="270" y="55" as="targetPoint" />
          </mxGeometry>
        </mxCell>
        <mxCell id="c82SJm1BQEb7knvldoy7-31" value="" style="endArrow=none;html=1;rounded=0;exitX=0.5;exitY=1;exitDx=0;exitDy=0;entryX=0.5;entryY=0;entryDx=0;entryDy=0;" edge="1" parent="1" source="c82SJm1BQEb7knvldoy7-21" target="c82SJm1BQEb7knvldoy7-26">
          <mxGeometry width="50" height="50" relative="1" as="geometry">
            <mxPoint x="310" y="-235" as="sourcePoint" />
            <mxPoint x="250" y="-165" as="targetPoint" />
          </mxGeometry>
        </mxCell>
        <mxCell id="c82SJm1BQEb7knvldoy7-32" value="a2" style="ellipse;whiteSpace=wrap;html=1;aspect=fixed;" vertex="1" parent="1">
          <mxGeometry x="190" y="-225" width="40" height="40" as="geometry" />
        </mxCell>
        <mxCell id="c82SJm1BQEb7knvldoy7-33" value="" style="endArrow=none;html=1;rounded=0;exitX=0.5;exitY=1;exitDx=0;exitDy=0;entryX=0.5;entryY=0;entryDx=0;entryDy=0;" edge="1" parent="1" source="c82SJm1BQEb7knvldoy7-22" target="c82SJm1BQEb7knvldoy7-32">
          <mxGeometry width="50" height="50" relative="1" as="geometry">
            <mxPoint x="140" y="-120" as="sourcePoint" />
            <mxPoint x="150" y="-150" as="targetPoint" />
          </mxGeometry>
        </mxCell>
        <mxCell id="c82SJm1BQEb7knvldoy7-34" value="quay phải" style="text;html=1;align=center;verticalAlign=middle;whiteSpace=wrap;rounded=0;" vertex="1" parent="1">
          <mxGeometry x="140" y="-295" width="60" height="30" as="geometry" />
        </mxCell>
        <mxCell id="c82SJm1BQEb7knvldoy7-35" value="ab" style="ellipse;whiteSpace=wrap;html=1;aspect=fixed;" vertex="1" parent="1">
          <mxGeometry x="-80" y="90" width="40" height="40" as="geometry" />
        </mxCell>
        <mxCell id="c82SJm1BQEb7knvldoy7-36" value="b1" style="ellipse;whiteSpace=wrap;html=1;aspect=fixed;" vertex="1" parent="1">
          <mxGeometry x="-140" y="200" width="40" height="40" as="geometry" />
        </mxCell>
        <mxCell id="c82SJm1BQEb7knvldoy7-37" value="a1" style="ellipse;whiteSpace=wrap;html=1;aspect=fixed;" vertex="1" parent="1">
          <mxGeometry y="200" width="40" height="40" as="geometry" />
        </mxCell>
        <mxCell id="c82SJm1BQEb7knvldoy7-38" value="" style="endArrow=none;html=1;rounded=0;exitX=0.5;exitY=1;exitDx=0;exitDy=0;entryX=0.5;entryY=0;entryDx=0;entryDy=0;" edge="1" source="c82SJm1BQEb7knvldoy7-35" target="c82SJm1BQEb7knvldoy7-37" parent="1">
          <mxGeometry width="50" height="50" relative="1" as="geometry">
            <mxPoint x="10" y="250" as="sourcePoint" />
            <mxPoint x="60" y="200" as="targetPoint" />
          </mxGeometry>
        </mxCell>
        <mxCell id="c82SJm1BQEb7knvldoy7-39" value="" style="endArrow=none;html=1;rounded=0;exitX=0.5;exitY=1;exitDx=0;exitDy=0;entryX=0.5;entryY=0;entryDx=0;entryDy=0;" edge="1" source="c82SJm1BQEb7knvldoy7-35" target="c82SJm1BQEb7knvldoy7-36" parent="1">
          <mxGeometry width="50" height="50" relative="1" as="geometry">
            <mxPoint x="-80" y="150" as="sourcePoint" />
            <mxPoint x="-20" y="240" as="targetPoint" />
          </mxGeometry>
        </mxCell>
        <mxCell id="c82SJm1BQEb7knvldoy7-48" value="Lệch Phải phải" style="text;html=1;align=center;verticalAlign=middle;whiteSpace=wrap;rounded=0;" vertex="1" parent="1">
          <mxGeometry x="-220" y="80" width="60" height="30" as="geometry" />
        </mxCell>
        <mxCell id="c82SJm1BQEb7knvldoy7-49" value="ab" style="ellipse;whiteSpace=wrap;html=1;aspect=fixed;" vertex="1" parent="1">
          <mxGeometry x="180" y="170" width="40" height="40" as="geometry" />
        </mxCell>
        <mxCell id="c82SJm1BQEb7knvldoy7-50" value="a1" style="ellipse;whiteSpace=wrap;html=1;aspect=fixed;" vertex="1" parent="1">
          <mxGeometry x="290" y="80" width="40" height="40" as="geometry" />
        </mxCell>
        <mxCell id="c82SJm1BQEb7knvldoy7-51" value="b1" style="ellipse;whiteSpace=wrap;html=1;aspect=fixed;" vertex="1" parent="1">
          <mxGeometry x="140" y="260" width="40" height="40" as="geometry" />
        </mxCell>
        <mxCell id="c82SJm1BQEb7knvldoy7-52" value="" style="endArrow=none;html=1;rounded=0;exitX=0.5;exitY=1;exitDx=0;exitDy=0;entryX=0.5;entryY=0;entryDx=0;entryDy=0;" edge="1" source="c82SJm1BQEb7knvldoy7-49" target="c82SJm1BQEb7knvldoy7-51" parent="1">
          <mxGeometry width="50" height="50" relative="1" as="geometry">
            <mxPoint x="180" y="280" as="sourcePoint" />
            <mxPoint x="230" y="230" as="targetPoint" />
          </mxGeometry>
        </mxCell>
        <mxCell id="c82SJm1BQEb7knvldoy7-53" value="" style="endArrow=none;html=1;rounded=0;exitX=0.5;exitY=0;exitDx=0;exitDy=0;entryX=0.5;entryY=1;entryDx=0;entryDy=0;" edge="1" source="c82SJm1BQEb7knvldoy7-49" target="c82SJm1BQEb7knvldoy7-50" parent="1">
          <mxGeometry width="50" height="50" relative="1" as="geometry">
            <mxPoint x="310" y="155" as="sourcePoint" />
            <mxPoint x="370" y="245" as="targetPoint" />
          </mxGeometry>
        </mxCell>
        <mxCell id="c82SJm1BQEb7knvldoy7-54" value="a3" style="ellipse;whiteSpace=wrap;html=1;aspect=fixed;" vertex="1" parent="1">
          <mxGeometry x="220" y="260" width="40" height="40" as="geometry" />
        </mxCell>
        <mxCell id="c82SJm1BQEb7knvldoy7-55" value="a21" style="ellipse;whiteSpace=wrap;html=1;aspect=fixed;" vertex="1" parent="1">
          <mxGeometry x="360" y="240" width="40" height="40" as="geometry" />
        </mxCell>
        <mxCell id="c82SJm1BQEb7knvldoy7-56" value="a22" style="ellipse;whiteSpace=wrap;html=1;aspect=fixed;" vertex="1" parent="1">
          <mxGeometry x="420" y="240" width="40" height="40" as="geometry" />
        </mxCell>
        <mxCell id="c82SJm1BQEb7knvldoy7-57" value="" style="endArrow=none;html=1;rounded=0;entryX=0.5;entryY=0;entryDx=0;entryDy=0;exitX=0.5;exitY=1;exitDx=0;exitDy=0;" edge="1" source="c82SJm1BQEb7knvldoy7-60" target="c82SJm1BQEb7knvldoy7-56" parent="1">
          <mxGeometry width="50" height="50" relative="1" as="geometry">
            <mxPoint x="480" y="330" as="sourcePoint" />
            <mxPoint x="550" y="410" as="targetPoint" />
          </mxGeometry>
        </mxCell>
        <mxCell id="c82SJm1BQEb7knvldoy7-58" value="" style="endArrow=none;html=1;rounded=0;entryX=1;entryY=0;entryDx=0;entryDy=0;exitX=0.5;exitY=1;exitDx=0;exitDy=0;" edge="1" source="c82SJm1BQEb7knvldoy7-60" target="c82SJm1BQEb7knvldoy7-55" parent="1">
          <mxGeometry width="50" height="50" relative="1" as="geometry">
            <mxPoint x="470" y="340" as="sourcePoint" />
            <mxPoint x="380" y="240" as="targetPoint" />
          </mxGeometry>
        </mxCell>
        <mxCell id="c82SJm1BQEb7knvldoy7-59" value="" style="endArrow=none;html=1;rounded=0;exitX=0.5;exitY=1;exitDx=0;exitDy=0;entryX=0.5;entryY=0;entryDx=0;entryDy=0;" edge="1" source="c82SJm1BQEb7knvldoy7-49" target="c82SJm1BQEb7knvldoy7-54" parent="1">
          <mxGeometry width="50" height="50" relative="1" as="geometry">
            <mxPoint x="120" y="170" as="sourcePoint" />
            <mxPoint x="60" y="240" as="targetPoint" />
          </mxGeometry>
        </mxCell>
        <mxCell id="c82SJm1BQEb7knvldoy7-60" value="a2" style="ellipse;whiteSpace=wrap;html=1;aspect=fixed;" vertex="1" parent="1">
          <mxGeometry x="390" y="170" width="40" height="40" as="geometry" />
        </mxCell>
        <mxCell id="c82SJm1BQEb7knvldoy7-61" value="" style="endArrow=none;html=1;rounded=0;exitX=0.5;exitY=1;exitDx=0;exitDy=0;entryX=0.5;entryY=0;entryDx=0;entryDy=0;" edge="1" source="c82SJm1BQEb7knvldoy7-50" target="c82SJm1BQEb7knvldoy7-60" parent="1">
          <mxGeometry width="50" height="50" relative="1" as="geometry">
            <mxPoint x="170" y="260" as="sourcePoint" />
            <mxPoint x="180" y="230" as="targetPoint" />
          </mxGeometry>
        </mxCell>
        <mxCell id="c82SJm1BQEb7knvldoy7-62" value="quay trái" style="text;html=1;align=center;verticalAlign=middle;whiteSpace=wrap;rounded=0;" vertex="1" parent="1">
          <mxGeometry x="170" y="85" width="60" height="30" as="geometry" />
        </mxCell>
        <mxCell id="c82SJm1BQEb7knvldoy7-63" value="a3" style="ellipse;whiteSpace=wrap;html=1;aspect=fixed;" vertex="1" parent="1">
          <mxGeometry x="-60" y="290" width="40" height="40" as="geometry" />
        </mxCell>
        <mxCell id="c82SJm1BQEb7knvldoy7-64" value="a21" style="ellipse;whiteSpace=wrap;html=1;aspect=fixed;" vertex="1" parent="1">
          <mxGeometry y="360" width="40" height="40" as="geometry" />
        </mxCell>
        <mxCell id="c82SJm1BQEb7knvldoy7-65" value="a22" style="ellipse;whiteSpace=wrap;html=1;aspect=fixed;" vertex="1" parent="1">
          <mxGeometry x="70" y="360" width="40" height="40" as="geometry" />
        </mxCell>
        <mxCell id="c82SJm1BQEb7knvldoy7-66" value="" style="endArrow=none;html=1;rounded=0;entryX=0.5;entryY=0;entryDx=0;entryDy=0;exitX=0.5;exitY=1;exitDx=0;exitDy=0;" edge="1" parent="1" source="c82SJm1BQEb7knvldoy7-69" target="c82SJm1BQEb7knvldoy7-65">
          <mxGeometry width="50" height="50" relative="1" as="geometry">
            <mxPoint x="70" y="370" as="sourcePoint" />
            <mxPoint x="140" y="450" as="targetPoint" />
          </mxGeometry>
        </mxCell>
        <mxCell id="c82SJm1BQEb7knvldoy7-67" value="" style="endArrow=none;html=1;rounded=0;entryX=0.5;entryY=0;entryDx=0;entryDy=0;exitX=0.5;exitY=1;exitDx=0;exitDy=0;" edge="1" parent="1" source="c82SJm1BQEb7knvldoy7-69" target="c82SJm1BQEb7knvldoy7-64">
          <mxGeometry width="50" height="50" relative="1" as="geometry">
            <mxPoint x="60" y="380" as="sourcePoint" />
            <mxPoint x="60" y="490" as="targetPoint" />
          </mxGeometry>
        </mxCell>
        <mxCell id="c82SJm1BQEb7knvldoy7-68" value="" style="endArrow=none;html=1;rounded=0;entryX=0.5;entryY=0;entryDx=0;entryDy=0;exitX=0.5;exitY=1;exitDx=0;exitDy=0;" edge="1" parent="1" target="c82SJm1BQEb7knvldoy7-63" source="c82SJm1BQEb7knvldoy7-37">
          <mxGeometry width="50" height="50" relative="1" as="geometry">
            <mxPoint x="35" y="260" as="sourcePoint" />
            <mxPoint x="40" y="270" as="targetPoint" />
          </mxGeometry>
        </mxCell>
        <mxCell id="c82SJm1BQEb7knvldoy7-69" value="a2" style="ellipse;whiteSpace=wrap;html=1;aspect=fixed;" vertex="1" parent="1">
          <mxGeometry x="40" y="280" width="40" height="40" as="geometry" />
        </mxCell>
        <mxCell id="c82SJm1BQEb7knvldoy7-70" value="" style="endArrow=none;html=1;rounded=0;exitX=0.5;exitY=1;exitDx=0;exitDy=0;entryX=0.5;entryY=0;entryDx=0;entryDy=0;" edge="1" parent="1" target="c82SJm1BQEb7knvldoy7-69" source="c82SJm1BQEb7knvldoy7-37">
          <mxGeometry width="50" height="50" relative="1" as="geometry">
            <mxPoint x="35" y="260" as="sourcePoint" />
            <mxPoint x="-60" y="285" as="targetPoint" />
          </mxGeometry>
        </mxCell>
      </root>
    </mxGraphModel>
  </diagram>
</mxfile>
